# File created by Blade
# Date/Time:  Thu Jan 22 16:31:11 2015
# Frame Rate: 120.000 fps
#------------------------------------------------------
:FULLY-SPECIFIED
:DEGREES
918
root 21.887190 28.655276 -1.162895 21.355333 36.814516 -6.150039
RightUpLeg 1.315862 -17.831466 -31.245925
RightLeg 3.388536 -0.000000 -0.000000
RightFoot 1.981530 -31.363521 39.148732
RightToeBase 9.798461 -0.000000 -0.000000
LeftUpLeg -84.269126 19.010675 -3.956783
LeftLeg 77.367638 -0.000000 -0.000000
LeftFoot -22.014787 8.263699 -18.348786
LeftToeBase 1.120835 -0.000000 -0.000000
Spine 43.292456 -2.976559 -40.743682
RightShoulder -3.922746 -12.952653 -25.437411
RightArm 0.467873 14.641272 46.840151
RightForeArm 22.132775 0.000000 16.552313
RightHand 16.746657 -0.000000 -44.809114
RightHandThumb1 -24.326973 -0.000000 -32.862282
LeftShoulder -7.631887 24.028739 17.685088
LeftArm 49.040012 -43.173858 -67.595816
LeftForeArm 9.593858 -0.000000 14.352712
LeftHand -21.863458 -0.000000 4.531694
LeftHandThumb1 -26.253704 0.000000 33.147579
Head -11.982896 -18.575085 2.664555
919
root 21.790973 28.807818 -1.168754 21.294258 36.741309 -5.970919
RightUpLeg 1.198344 -17.755356 -31.171882
RightLeg 3.442656 -0.000000 -0.000000
RightFoot 1.962662 -31.674938 39.295162
RightToeBase 9.826643 -0.000000 -0.000000
LeftUpLeg -83.632849 19.127847 -3.967086
LeftLeg 76.419905 -0.000000 -0.000000
LeftFoot -21.579867 8.229338 -18.504180
LeftToeBase 1.412015 -0.000000 -0.000000
Spine 43.124323 -3.265743 -40.485324
RightShoulder -3.944889 -13.201741 -25.137353
RightArm 0.604870 14.173378 47.828499
RightForeArm 22.046937 -0.000000 16.385625
RightHand 16.659286 0.000000 -44.261176
RightHandThumb1 -24.326973 -0.000000 -32.862282
LeftShoulder -7.705756 24.087523 17.663089
LeftArm 48.889577 -42.871867 -67.544972
LeftForeArm 9.802735 -0.000000 14.986288
LeftHand -21.843099 -0.000000 4.035020
LeftHandThumb1 -26.253704 0.000000 33.147579
Head -12.229234 -18.331861 3.090929
920
root 21.693456 28.955605 -1.176516 21.231739 36.679802 -5.812569
RightUpLeg 1.058862 -17.739136 -31.078502
RightLeg 3.522966 -0.000000 -0.000000
RightFoot 1.898573 -31.953883 39.464737
RightToeBase 9.904334 -0.000000 -0.000000
LeftUpLeg -83.012764 19.217364 -3.941405
LeftLeg 75.481248 -0.000000 -0.000000
LeftFoot -21.142800 8.215217 -18.665255
LeftToeBase 1.595433 -0.000000 -0.000000
Spine 42.933759 -3.598456 -40.176353
RightShoulder -4.001352 -13.501894 -24.810587
RightArm 0.812024 13.877945 48.796925
RightForeArm 22.004101 -0.000000 16.231013
RightHand 16.528468 -0.000000 -43.662377
RightHandThumb1 -24.326973 -0.000000 -32.862282
LeftShoulder -7.823379 24.111276 17.529231
LeftArm 48.734781 -42.291886 -67.114716
LeftForeArm 10.580583 0.000000 15.065109
LeftHand -21.658801 0.000000 3.870466
LeftHandThumb1 -26.253704 0.000000 33.147579
Head -12.506466 -18.057266 3.507693
921
root 21.596029 29.101287 -1.184304 21.143026 36.658168 -5.624509
RightUpLeg 0.997435 -17.919173 -31.015669
RightLeg 3.562738 -0.000000 -0.000000
RightFoot 1.930000 -32.182231 39.573105
RightToeBase 9.921419 -0.000000 -0.000000
LeftUpLeg -82.318774 19.252528 -3.906075
LeftLeg 74.505754 -0.000000 -0.000000
LeftFoot -20.767579 8.239911 -18.789457
LeftToeBase 1.907751 -0.000000 -0.000000
Spine 42.807037 -4.012423 -39.908655
RightShoulder -4.016809 -13.960581 -24.515369
RightArm 1.227138 13.540473 49.819155
RightForeArm 22.210302 -0.000000 16.016729
RightHand 16.339175 -0.000000 -43.070539
RightHandThumb1 -24.326973 -0.000000 -32.862282
LeftShoulder -7.976428 24.138624 17.452210
LeftArm 48.393000 -41.780388 -66.832282
LeftForeArm 10.590615 0.000000 15.720368
LeftHand -21.721226 -0.000000 3.626473
LeftHandThumb1 -26.253704 0.000000 33.147579
Head -12.778830 -17.878067 3.871860
922
root 21.493132 29.244745 -1.187736 21.024451 36.601802 -5.484473
RightUpLeg 0.908941 -18.094046 -30.905208
RightLeg 3.599305 -0.000000 -0.000000
RightFoot 1.883940 -32.417754 39.775887
RightToeBase 9.906352 -0.000000 -0.000000
LeftUpLeg -81.648705 19.353360 -3.837386
LeftLeg 73.566053 -0.000000 -0.000000
LeftFoot -20.344752 8.202932 -18.983463
LeftToeBase 2.243737 -0.000000 -0.000000
Spine 42.649867 -4.402440 -39.613979
RightShoulder -4.052743 -14.151762 -24.223787
RightArm 1.443509 13.023480 50.795884
RightForeArm 22.503649 -0.000000 15.849280
RightHand 16.114048 -0.000000 -42.473100
RightHandThumb1 -24.326973 -0.000000 -32.862282
LeftShoulder -8.102608 24.022339 17.425753
LeftArm 47.668145 -40.993791 -66.136801
LeftForeArm 10.703950 0.000000 16.295490
LeftHand -21.965991 -0.000000 3.877533
LeftHandThumb1 -26.253704 0.000000 33.147579
Head -13.103304 -17.644861 4.284767
923
root 21.389633 29.384395 -1.191443 20.889955 36.526764 -5.351334
RightUpLeg 0.818794 -18.349660 -30.793428
RightLeg 3.635539 -0.000000 -0.000000
RightFoot 1.876757 -32.574948 39.904804
RightToeBase 9.875747 -0.000000 -0.000000
LeftUpLeg -80.972704 19.455593 -3.760023
LeftLeg 72.627565 -0.000000 -0.000000
LeftFoot -19.920907 8.239736 -19.109211
LeftToeBase 2.461781 -0.000000 -0.000000
Spine 42.477855 -4.786045 -39.302333
RightShoulder -4.078487 -14.237469 -23.969807
RightArm 1.569076 12.316295 51.760742
RightForeArm 22.889148 0.000000 15.686500
RightHand 15.713002 -0.000000 -41.666930
RightHandThumb1 -24.326973 -0.000000 -32.862282
LeftShoulder -8.264656 24.084652 17.356684
LeftArm 47.177415 -40.161866 -65.524068
LeftForeArm 10.748431 0.000000 16.810269
LeftHand -22.127321 -0.000000 4.198235
LeftHandThumb1 -26.253704 0.000000 33.147579
Head -13.426254 -17.347831 4.681349
924
root 21.279989 29.523219 -1.195306 20.733548 36.480802 -5.255811
RightUpLeg 0.727276 -18.688315 -30.632382
RightLeg 3.696073 -0.000000 -0.000000
RightFoot 1.754701 -32.709746 40.151338
RightToeBase 9.886414 -0.000000 -0.000000
LeftUpLeg -80.306329 19.550242 -3.641419
LeftLeg 71.692227 -0.000000 -0.000000
LeftFoot -19.493498 8.212174 -19.287759
LeftToeBase 2.833209 -0.000000 -0.000000
Spine 42.303712 -5.205110 -38.953557
RightShoulder -4.054383 -14.386480 -23.717191
RightArm 1.697308 11.733931 52.712005
RightForeArm 23.333448 0.000000 15.589748
RightHand 15.519146 0.000000 -41.086411
RightHandThumb1 -24.326973 -0.000000 -32.862282
LeftShoulder -8.366912 24.170223 17.367843
LeftArm 46.604986 -39.307474 -64.927109
LeftForeArm 10.660697 -0.000000 17.354719
LeftHand -22.246625 -0.000000 4.485873
LeftHandThumb1 -26.253704 0.000000 33.147579
Head -13.713763 -17.063727 5.064184
925
root 21.173788 29.659695 -1.196868 20.556976 36.412255 -5.110344
RightUpLeg 0.693690 -19.049829 -30.533194
RightLeg 3.728859 -0.000000 -0.000000
RightFoot 1.612320 -32.817829 40.601179
RightToeBase 9.643865 -0.000000 -0.000000
LeftUpLeg -79.567140 19.612249 -3.510404
LeftLeg 70.752170 -0.000000 -0.000000
LeftFoot -19.049455 8.265080 -19.454166
LeftToeBase 3.097816 -0.000000 -0.000000
Spine 42.170335 -5.589871 -38.657675
RightShoulder -4.028550 -14.462195 -23.447738
RightArm 1.733619 11.065309 53.642242
RightForeArm 23.756904 -0.000000 15.552482
RightHand 15.264880 -0.000000 -40.172598
RightHandThumb1 -24.326973 -0.000000 -32.862282
LeftShoulder -8.463453 24.319167 17.418751
LeftArm 46.079245 -38.440078 -64.383658
LeftForeArm 10.456584 -0.000000 17.929751
LeftHand -22.344508 -0.000000 4.912399
LeftHandThumb1 -26.253704 0.000000 33.147579
Head -14.040691 -16.740027 5.484972
926
root 21.060592 29.793718 -1.198045 20.355124 36.329499 -5.007767
RightUpLeg 0.618593 -19.294764 -30.389025
RightLeg 3.839464 -0.000000 -0.000000
RightFoot 1.286368 -32.899675 40.975670
RightToeBase 9.779914 -0.000000 -0.000000
LeftUpLeg -78.832449 19.730920 -3.368231
LeftLeg 69.805920 -0.000000 -0.000000
LeftFoot -18.620659 8.259125 -19.582776
LeftToeBase 3.427058 -0.000000 -0.000000
Spine 42.022037 -5.967907 -38.318104
RightShoulder -4.015421 -14.582857 -23.173804
RightArm 1.820539 10.550914 54.579932
RightForeArm 23.961058 0.000000 15.507952
RightHand 15.015533 0.000000 -39.154325
RightHandThumb1 -24.326973 -0.000000 -32.862282
LeftShoulder -8.562950 24.490560 17.477283
LeftArm 45.598551 -37.555303 -63.880569
LeftForeArm 10.278487 -0.000000 18.504529
LeftHand -22.419300 0.000000 5.350195
LeftHandThumb1 -26.253704 0.000000 33.147579
Head -14.424902 -16.339529 5.907908
927
root 20.941478 29.927178 -1.199687 20.114147 36.214107 -4.935073
RightUpLeg 0.545762 -19.419213 -30.217087
RightLeg 3.927123 -0.000000 -0.000000
RightFoot 0.986780 -33.064210 41.320886
RightToeBase 9.693930 -0.000000 -0.000000
LeftUpLeg -78.085491 19.883208 -3.198387
LeftLeg 68.859608 -0.000000 -0.000000
LeftFoot -18.161297 8.287864 -19.719974
LeftToeBase 3.648489 -0.000000 -0.000000
Spine 41.901079 -6.318660 -37.970905
RightShoulder -4.041707 -14.791904 -22.862730
RightArm 2.028356 10.183052 55.521355
RightForeArm 23.998159 0.000000 15.500066
RightHand 14.758273 -0.000000 -38.215137
RightHandThumb1 -24.326973 -0.000000 -32.862282
LeftShoulder -8.691195 24.605343 17.543020
LeftArm 45.068479 -36.593048 -63.292966
LeftForeArm 10.058875 0.000000 19.040655
LeftHand -22.473602 -0.000000 5.837022
LeftHandThumb1 -26.253704 0.000000 33.147579
Head -14.933137 -15.864281 6.418045
928
root 20.825747 30.057650 -1.201360 19.871247 36.035753 -4.827386
RightUpLeg 0.457742 -19.455263 -30.089061
RightLeg 4.053063 -0.000000 -0.000000
RightFoot 0.485129 -33.241960 41.904886
RightToeBase 9.601467 -0.000000 -0.000000
LeftUpLeg -77.289285 20.016636 -2.993810
LeftLeg 67.933768 -0.000000 -0.000000
LeftFoot -17.735924 8.344929 -19.948511
LeftToeBase 3.968299 -0.000000 -0.000000
Spine 41.737348 -6.616866 -37.647793
RightShoulder -4.074894 -15.014484 -22.544534
RightArm 2.282505 9.776230 56.463043
RightForeArm 24.117679 -0.000000 15.409733
RightHand 14.749911 -0.000000 -37.503518
RightHandThumb1 -24.326973 -0.000000 -32.862282
LeftShoulder -8.764236 24.742944 17.608242
LeftArm 44.576622 -35.695307 -62.767336
LeftForeArm 9.942506 -0.000000 19.576713
LeftHand -22.434600 -0.000000 6.099730
LeftHandThumb1 -26.253704 0.000000 33.147579
Head -15.373074 -15.550244 6.857476
